<?xml version="1.0" encoding="UTF-8" standalone="no"?>
<!DOCTYPE svg PUBLIC "-//W3C//DTD SVG 20010904//EN"
              "http://www.w3.org/TR/2001/REC-SVG-20010904/DTD/svg10.dtd">

<svg xmlns="http://www.w3.org/2000/svg"
     width="6.4in" height="1.06667in"
     viewBox="0 0 1920 320">
  <path id="Selection"
        fill="white" stroke="white" stroke-width="1"
        d="M 770.00,9.00
           C 770.00,9.00 801.00,9.00 801.00,9.00
             801.00,9.00 801.00,94.00 801.00,94.00
             819.23,82.59 831.99,72.04 855.00,72.00
             864.08,71.99 870.09,71.39 879.00,74.04
             883.87,75.48 888.75,77.28 893.00,80.10
             920.48,98.36 917.00,132.47 917.00,161.00
             917.00,161.00 917.00,252.00 917.00,252.00
             917.00,252.00 887.00,252.00 887.00,252.00
             887.00,252.00 887.00,147.00 887.00,147.00
             886.96,137.76 885.32,121.67 880.15,114.00
             870.26,99.32 850.57,98.42 835.00,103.20
             829.76,104.81 824.87,107.28 820.00,109.76
             815.28,112.16 803.51,118.29 801.60,123.09
             800.88,124.89 801.00,128.02 801.00,130.00
             801.00,130.00 801.00,252.00 801.00,252.00
             801.00,252.00 770.00,252.00 770.00,252.00
             770.00,252.00 770.00,9.00 770.00,9.00 Z
           M 5.00,183.00
           C 7.52,183.01 10.64,182.86 13.00,183.73
             13.00,183.73 35.00,197.69 35.00,197.69
             49.35,205.47 73.66,213.81 90.00,214.00
             104.35,214.16 119.55,214.87 132.00,206.40
             140.07,200.91 144.54,192.27 139.44,183.00
             135.80,176.37 128.93,172.69 122.00,170.36
             122.00,170.36 85.00,162.00 85.00,162.00
             55.86,155.96 21.14,144.77 10.09,114.00
             6.63,104.36 5.89,95.12 6.00,85.00
             6.54,39.15 58.72,14.06 99.00,14.00
             99.00,14.00 124.00,14.00 124.00,14.00
             137.96,14.02 164.53,18.86 178.00,23.02
             181.23,24.02 192.31,27.13 193.98,29.51
             195.23,31.29 195.00,34.86 195.00,37.00
             195.00,37.00 195.00,83.00 195.00,83.00
             192.44,82.99 189.42,83.14 187.00,82.28
             187.00,82.28 163.00,68.42 163.00,68.42
             140.98,58.77 130.73,56.96 107.00,57.00
             93.00,57.02 67.56,63.99 69.11,82.00
             69.67,88.49 74.50,93.12 80.00,96.02
             87.86,100.15 105.77,103.75 115.00,105.60
             146.25,111.86 188.82,121.10 200.66,155.00
             202.73,160.95 203.92,165.66 204.00,172.00
             204.14,184.04 204.59,191.28 200.64,203.00
             188.46,239.20 143.52,256.94 108.00,257.00
             108.00,257.00 80.00,257.00 80.00,257.00
             61.79,256.97 40.26,252.08 23.00,246.33
             19.57,245.19 7.84,241.79 5.99,239.30
             4.74,237.62 5.00,234.06 5.00,232.00
             5.00,232.00 5.00,183.00 5.00,183.00 Z
           M 973.00,19.00
           C 973.00,19.00 1036.00,19.00 1036.00,19.00
             1036.00,19.00 1043.61,20.02 1043.61,20.02
             1043.61,20.02 1048.30,28.00 1048.30,28.00
             1048.30,28.00 1056.31,46.00 1056.31,46.00
             1056.31,46.00 1084.69,109.00 1084.69,109.00
             1084.69,109.00 1096.00,134.00 1096.00,134.00
             1096.00,134.00 1108.14,106.00 1108.14,106.00
             1108.14,106.00 1135.42,45.00 1135.42,45.00
             1135.42,45.00 1143.00,28.00 1143.00,28.00
             1143.00,28.00 1147.63,19.99 1147.63,19.99
             1147.63,19.99 1155.00,19.00 1155.00,19.00
             1155.00,19.00 1218.00,19.00 1218.00,19.00
             1218.00,19.00 1218.00,252.00 1218.00,252.00
             1218.00,252.00 1157.00,252.00 1157.00,252.00
             1157.00,252.00 1157.00,150.00 1157.00,150.00
             1157.00,150.00 1157.00,119.00 1157.00,119.00
             1157.00,119.00 1156.00,101.00 1156.00,101.00
             1156.00,101.00 1147.60,122.00 1147.60,122.00
             1147.60,122.00 1125.00,175.00 1125.00,175.00
             1125.00,175.00 1119.01,189.00 1119.01,189.00
             1119.01,189.00 1115.30,196.01 1115.30,196.01
             1115.30,196.01 1108.00,197.00 1108.00,197.00
             1108.00,197.00 1081.00,197.00 1081.00,197.00
             1081.00,197.00 1073.39,195.98 1073.39,195.98
             1073.39,195.98 1069.15,189.00 1069.15,189.00
             1069.15,189.00 1062.72,174.00 1062.72,174.00
             1062.72,174.00 1031.00,100.00 1031.00,100.00
             1031.00,100.00 1031.00,252.00 1031.00,252.00
             1031.00,252.00 973.00,252.00 973.00,252.00
             973.00,252.00 973.00,19.00 973.00,19.00 Z
           M 1468.00,27.00
           C 1468.00,27.00 1498.00,27.00 1498.00,27.00
             1498.00,27.00 1498.00,77.00 1498.00,77.00
             1498.00,77.00 1559.00,77.00 1559.00,77.00
             1559.00,77.00 1559.00,102.00 1559.00,102.00
             1559.00,102.00 1498.00,102.00 1498.00,102.00
             1498.00,102.00 1498.00,166.00 1498.00,166.00
             1498.00,166.00 1498.00,184.00 1498.00,184.00
             1498.00,184.00 1498.96,196.00 1498.96,196.00
             1499.12,199.59 1498.80,202.31 1499.46,206.00
             1502.37,222.11 1512.25,228.98 1528.00,229.00
             1546.83,229.03 1547.47,224.56 1559.00,224.00
             1559.00,224.00 1559.00,243.00 1559.00,243.00
             1559.00,245.12 1559.23,248.73 1557.98,250.49
             1556.46,252.62 1552.43,253.13 1550.00,253.58
             1543.26,254.81 1536.88,255.99 1530.00,256.00
             1509.05,256.03 1490.20,255.71 1477.10,236.00
             1470.88,226.64 1468.02,210.16 1468.00,199.00
             1468.00,199.00 1468.00,102.00 1468.00,102.00
             1468.00,102.00 1448.00,102.00 1448.00,102.00
             1448.00,102.00 1448.00,77.00 1448.00,77.00
             1448.00,77.00 1468.00,77.00 1468.00,77.00
             1468.00,77.00 1468.00,27.00 1468.00,27.00 Z
           M 414.00,79.00
           C 429.71,76.88 445.00,72.02 461.00,72.00
             461.00,72.00 483.00,72.00 483.00,72.00
             499.47,72.03 519.59,76.83 531.99,88.17
             542.84,98.10 547.83,113.56 548.00,128.00
             548.00,128.00 548.00,252.00 548.00,252.00
             548.00,252.00 518.00,252.00 518.00,252.00
             518.00,252.00 518.00,235.00 518.00,235.00
             508.40,241.01 505.30,244.51 494.00,249.69
             477.98,257.03 468.95,257.03 452.00,257.00
             434.70,256.97 418.09,248.33 408.22,234.00
             394.62,214.25 395.32,179.78 412.09,162.01
             427.79,145.38 453.30,141.00 475.00,138.83
             475.00,138.83 518.00,136.00 518.00,136.00
             518.00,129.99 517.84,125.84 515.95,120.00
             512.11,108.11 501.65,102.13 490.00,100.08
             471.82,96.89 452.58,99.56 435.00,104.58
             428.07,106.56 421.23,109.65 414.00,110.00
             414.00,110.00 414.00,79.00 414.00,79.00 Z
           M 1278.00,79.00
           C 1293.71,76.88 1309.00,72.02 1325.00,72.00
             1325.00,72.00 1347.00,72.00 1347.00,72.00
             1363.47,72.03 1383.59,76.83 1395.99,88.17
             1406.84,98.10 1411.83,113.56 1412.00,128.00
             1412.00,128.00 1412.00,252.00 1412.00,252.00
             1412.00,252.00 1382.00,252.00 1382.00,252.00
             1382.00,252.00 1382.00,235.00 1382.00,235.00
             1372.40,241.01 1369.30,244.51 1358.00,249.69
             1341.98,257.03 1332.95,257.03 1316.00,257.00
             1298.70,256.97 1282.09,248.33 1272.22,234.00
             1258.62,214.25 1259.32,179.78 1276.09,162.01
             1291.79,145.38 1317.30,141.00 1339.00,138.83
             1339.00,138.83 1382.00,136.00 1382.00,136.00
             1382.00,129.99 1381.84,125.84 1379.95,120.00
             1376.11,108.11 1365.65,102.13 1354.00,100.08
             1335.82,96.89 1316.58,99.56 1299.00,104.58
             1292.07,106.56 1285.23,109.65 1278.00,110.00
             1278.00,110.00 1278.00,79.00 1278.00,79.00 Z
           M 733.00,209.00
           C 733.00,209.00 733.00,234.00 733.00,234.00
             733.00,236.18 733.23,239.68 731.98,241.51
             729.84,244.63 713.30,250.28 709.00,251.66
             684.54,259.49 650.34,257.87 628.00,244.55
             596.62,225.83 590.61,191.49 591.00,158.00
             591.37,126.76 606.77,94.62 636.00,80.89
             658.72,70.21 686.32,70.79 710.00,77.58
             714.56,78.89 729.66,83.75 731.98,87.39
             733.22,89.34 733.00,92.73 733.00,95.00
             733.00,95.00 733.00,120.00 733.00,120.00
             726.23,118.62 717.99,111.81 711.00,108.48
             691.53,99.22 665.97,95.00 647.00,107.75
             627.61,120.78 623.72,141.33 622.18,163.00
             621.93,166.60 622.67,168.56 622.91,172.00
             624.07,188.58 627.58,203.82 640.04,215.91
             652.06,227.58 664.18,229.18 680.00,229.00
             689.82,228.88 703.40,224.84 712.00,220.14
             718.13,216.79 726.77,210.27 733.00,209.00 Z
           M 231.00,77.00
           C 231.00,77.00 368.00,77.00 368.00,77.00
             368.00,77.00 368.00,93.00 368.00,93.00
             367.88,101.43 363.85,104.58 358.79,111.00
             358.79,111.00 335.80,140.00 335.80,140.00
             335.80,140.00 297.00,189.00 297.00,189.00
             297.00,189.00 267.00,227.00 267.00,227.00
             267.00,227.00 371.00,227.00 371.00,227.00
             371.00,227.00 371.00,252.00 371.00,252.00
             371.00,252.00 229.00,252.00 229.00,252.00
             229.00,252.00 229.00,235.00 229.00,235.00
             229.14,226.86 232.92,224.10 237.80,218.00
             237.80,218.00 259.35,191.00 259.35,191.00
             259.35,191.00 330.00,102.00 330.00,102.00
             330.00,102.00 231.00,102.00 231.00,102.00
             231.00,102.00 231.00,77.00 231.00,77.00 Z
           M 1573.00,77.00
           C 1573.00,77.00 1598.00,77.00 1598.00,77.00
             1598.00,77.00 1605.59,78.02 1605.59,78.02
             1605.59,78.02 1610.40,87.00 1610.40,87.00
             1610.40,87.00 1618.72,107.00 1618.72,107.00
             1618.72,107.00 1648.58,179.00 1648.58,179.00
             1648.58,179.00 1659.00,204.00 1659.00,204.00
             1659.00,204.00 1667.85,183.00 1667.85,183.00
             1667.85,183.00 1699.72,107.00 1699.72,107.00
             1699.72,107.00 1708.01,87.00 1708.01,87.00
             1708.01,87.00 1712.70,77.99 1712.70,77.99
             1712.70,77.99 1720.00,77.00 1720.00,77.00
             1720.00,77.00 1744.00,77.00 1744.00,77.00
             1742.45,83.60 1737.27,94.33 1734.42,101.00
             1734.42,101.00 1717.42,141.00 1717.42,141.00
             1717.42,141.00 1666.28,261.00 1666.28,261.00
             1666.28,261.00 1649.28,301.00 1649.28,301.00
             1642.78,316.07 1644.41,315.98 1635.00,316.00
             1635.00,316.00 1610.00,316.00 1610.00,316.00
             1610.00,316.00 1632.86,264.00 1632.86,264.00
             1632.86,264.00 1641.25,243.00 1641.25,243.00
             1641.25,243.00 1635.42,227.00 1635.42,227.00
             1635.42,227.00 1622.01,195.00 1622.01,195.00
             1622.01,195.00 1588.58,115.00 1588.58,115.00
             1588.58,115.00 1573.00,77.00 1573.00,77.00 Z
           M 518.00,161.00
           C 518.00,161.00 478.00,163.85 478.00,163.85
             468.91,164.93 459.47,166.23 451.00,169.87
             445.46,172.25 439.23,176.11 435.63,181.01
             426.52,193.43 428.17,214.18 441.00,223.36
             450.34,230.06 470.08,230.35 481.00,227.99
             486.92,226.70 492.62,224.50 498.00,221.74
             502.16,219.61 514.91,212.46 516.98,208.82
             518.21,206.66 518.00,203.44 518.00,201.00
             518.00,201.00 518.00,161.00 518.00,161.00 Z
           M 1382.00,161.00
           C 1382.00,161.00 1342.00,163.85 1342.00,163.85
             1332.91,164.93 1323.47,166.23 1315.00,169.87
             1309.46,172.25 1303.23,176.11 1299.63,181.01
             1290.52,193.43 1292.17,214.18 1305.00,223.36
             1314.34,230.06 1334.08,230.35 1345.00,227.99
             1350.92,226.70 1356.62,224.50 1362.00,221.74
             1366.16,219.61 1378.91,212.46 1380.98,208.82
             1382.21,206.66 1382.00,203.44 1382.00,201.00
             1382.00,201.00 1382.00,161.00 1382.00,161.00 Z" />
</svg>
